<svg width="416" height="416" viewBox="0 0 416 416" fill="none" xmlns="http://www.w3.org/2000/svg">
<path d="M208.353 218.579L265.366 161.566C268.584 158.817 272.72 157.38 276.95 157.544C281.187 157.707 285.205 159.463 288.203 162.461C291.201 165.459 292.957 169.478 293.121 173.715C293.284 177.945 291.848 182.081 289.098 185.299L219.78 254.617C216.645 257.727 212.413 259.48 207.997 259.499H207.996C205.781 259.512 203.585 259.087 201.534 258.249C199.483 257.412 197.618 256.178 196.045 254.618C196.045 254.618 196.045 254.618 196.044 254.617L126.713 185.285C123.542 182.115 121.761 177.816 121.761 173.332C121.761 168.849 123.542 164.549 126.713 161.379C129.883 158.209 134.182 156.428 138.666 156.428C143.149 156.428 147.449 158.209 150.619 161.379L207.645 218.579L207.998 218.933L208.353 218.579Z" fill="#A098AE" stroke="#A098AE"/>
</svg>
